<svg xmlns="http://www.w3.org/2000/svg" style="display: none">
  <symbol id="sun" viewBox="0 0 24 24" fill="none" stroke="currentColor" stroke-width="2"
          stroke-linecap="round" stroke-linejoin="round">
    <circle cx="12" cy="12" r="4"/>
    <path d="M12 2v2"/>
    <path d="M12 20v2"/>
    <path d="m4.93 4.93 1.41 1.41"/>
    <path d="m17.66 17.66 1.41 1.41"/>
    <path d="M2 12h2"/>
    <path d="M20 12h2"/>
    <path d="m6.34 17.66-1.41 1.41"/>
    <path d="m19.07 4.93-1.41 1.41"/>
  </symbol>

  <symbol id="moon" viewBox="0 0 24 24" fill="none" stroke="currentColor" stroke-width="2"
          stroke-linecap="round" stroke-linejoin="round">
    <path d="M12 3a6 6 0 0 0 9 9 9 9 0 1 1-9-9Z"/>
  </symbol>

  <symbol id="laptop" viewBox="0 0 24 24" fill="none" stroke="currentColor" stroke-width="2"
          stroke-linecap="round" stroke-linejoin="round">
    <path d="M12 17v4"/>
    <path d="m14.305 7.53.923-.382"/>
    <path d="m15.228 4.852-.923-.383"/>
    <path d="m16.852 3.228-.383-.924"/>
    <path d="m16.852 8.772-.383.923"/>
    <path d="m19.148 3.228.383-.924"/>
    <path d="m19.53 9.696-.382-.924"/>
    <path d="m20.772 4.852.924-.383"/>
    <path d="m20.772 7.148.924.383"/>
    <path d="M22 13v2a2 2 0 0 1-2 2H4a2 2 0 0 1-2-2V5a2 2 0 0 1 2-2h7"/>
    <path d="M8 21h8"/>
    <circle cx="18" cy="6" r="3"/>
  </symbol>
</svg>
